HIERARCHY
ROOT Hips
{
	OFFSET	0.00	0.00	0.00
	CHANNELS 6 Xposition Yposition Zposition Zrotation Xrotation Yrotation
	JOINT LeftUpLeg
	{
		OFFSET	 0.126116	-0.014019	-0.065224
		CHANNELS 3 Zrotation Xrotation Yrotation
		JOINT LeftLeg
		{
			OFFSET	 0.000000	 0.000000	 0.569914
			CHANNELS 3 Zrotation Xrotation Yrotation
			JOINT LeftFoot
			{
				OFFSET	 0.000000	 0.000000	 0.544423
				CHANNELS 3 Zrotation Xrotation Yrotation
				JOINT LeftToeBase
				{
					OFFSET	 0.000000	 0.000000	 0.207117
					CHANNELS 3 Zrotation Xrotation Yrotation
					End Site
					{
						OFFSET	 0.000000	 0.000000	 0.207117
					}
				}
			}
		}
	}
	JOINT RightUpLeg
	{
		OFFSET	-0.124023	-0.008373	-0.065224
		CHANNELS 3 Zrotation Xrotation Yrotation
		JOINT RightLeg
		{
			OFFSET	 0.000000	 0.000000	 0.570047
			CHANNELS 3 Zrotation Xrotation Yrotation
			JOINT RightFoot
			{
				OFFSET	 0.000000	 0.000000	 0.544354
				CHANNELS 3 Zrotation Xrotation Yrotation
				JOINT RightToeBase
				{
					OFFSET	 0.000000	 0.000000	 0.207540
					CHANNELS 3 Zrotation Xrotation Yrotation
					End Site
					{
						OFFSET	 0.000000	 0.000000	 0.207540
					}
				}
			}
		}
	}
	JOINT Spine
	{
		OFFSET	 0.000184	-0.007763	 0.117403
		CHANNELS 3 Zrotation Xrotation Yrotation
		JOINT Spine1
		{
			OFFSET	 0.000000	 0.000000	 0.137269
			CHANNELS 3 Zrotation Xrotation Yrotation
			JOINT Spine2
			{
				OFFSET	 0.000000	 0.000000	 0.156879
				CHANNELS 3 Zrotation Xrotation Yrotation
				JOINT LeftShoulder
				{
					OFFSET	 0.080501	-0.002496	 0.160144
					CHANNELS 3 Zrotation Xrotation Yrotation
					JOINT LeftArm
					{
						OFFSET	 0.000000	 0.000000	 0.164363
						CHANNELS 3 Zrotation Xrotation Yrotation
						JOINT LeftForeArm
						{
							OFFSET	 0.000000	 0.000000	 0.364576
							CHANNELS 3 Zrotation Xrotation Yrotation
							JOINT LeftHand
							{
								OFFSET	 0.000000	 0.000000	 0.360812
								CHANNELS 3 Zrotation Xrotation Yrotation
								JOINT LeftHandIndex1
								{
									OFFSET	 0.000000	 0.000000	 0.086006
									CHANNELS 3 Zrotation Xrotation Yrotation
									JOINT LeftHandIndex2
									{
										OFFSET	 0.000000	 0.000000	 0.047236
										CHANNELS 3 Zrotation Xrotation Yrotation
										JOINT LeftHandIndex3
										{
											OFFSET	-0.004284	-0.000551	 0.038166
											CHANNELS 3 Zrotation Xrotation Yrotation
											End Site
											{
												OFFSET	-0.004284	-0.000551	 0.038166
											}
										}
									}
								}
							}
						}
					}
				}
				JOINT Neck
				{
					OFFSET	 0.000000	 0.000000	 0.176489
					CHANNELS 3 Zrotation Xrotation Yrotation
					JOINT Head
					{
						OFFSET	 0.000000	-0.001747	 0.077940
						CHANNELS 3 Zrotation Xrotation Yrotation
						End Site
						{
							OFFSET	 0.000000	-0.001747	 0.077940
						}
					}
				}
				JOINT RightShoulder
				{
					OFFSET	-0.080363	 0.000306	 0.159706
					CHANNELS 3 Zrotation Xrotation Yrotation
					JOINT RightArm
					{
						OFFSET	 0.000000	 0.000000	 0.164196
						CHANNELS 3 Zrotation Xrotation Yrotation
						JOINT RightForeArm
						{
							OFFSET	 0.000000	 0.000000	 0.365611
							CHANNELS 3 Zrotation Xrotation Yrotation
							JOINT RightHand
							{
								OFFSET	 0.000000	 0.000000	 0.360648
								CHANNELS 3 Zrotation Xrotation Yrotation
								JOINT RightHandIndex1
								{
									OFFSET	 0.000000	 0.000000	 0.069977
									CHANNELS 3 Zrotation Xrotation Yrotation
									JOINT RightHandIndex2
									{
										OFFSET	 0.000000	 0.000000	 0.052305
										CHANNELS 3 Zrotation Xrotation Yrotation
										JOINT RightHandIndex3
										{
											OFFSET	 0.009002	-0.000782	 0.042196
											CHANNELS 3 Zrotation Xrotation Yrotation
											End Site
											{
												OFFSET	 0.009002	-0.000782	 0.042196
											}
										}
									}
								}
							}
						}
					}
				}
			}
		}
	}
}
MOTION
Frames:    9
Frame Time: 0.03333334
 0.000129	 0.041907	 1.275530	-0.105719	 2.070093	 0.458741	 6.908849	-5.312045	 177.883000	 2.366294	-12.980590	 0.625551	-0.812399	 70.992290	 0.613073	-2.385833	 28.452750	 0.000004	 0.726221	-4.917315	-178.105400	-0.807601	-11.662500	 0.878660	 5.720654	 70.026340	 0.582219	 2.384659	 28.388700	-0.000001	-7.370202	 6.084876	 1.283381	-3.020570	-2.292588	-0.104441	 9.446573	 4.862355	-0.477130	-91.270750	 70.504280	-178.071700	-9.490040	 3.742638	-23.609180	 25.839990	-0.124830	-0.863678	-11.680630	-28.202960	-4.760440	-2.027600	 6.559038	 9.033609	-5.188889	 0.308190	 3.541030	-5.234859	 0.342567	 0.430617	 4.166436	 15.914050	-6.101572	 4.496476	-12.230780	 2.149698	 89.152810	 69.667690	 177.660500	 9.586015	 8.395676	 4.616831	-25.014530	-9.937116	 29.299400	 9.679861	-28.571240	 7.599082	 1.803333	 3.979147	-15.098590	 4.898592	 3.004813	-9.310344	 5.224449	 0.395017	 2.014677
-0.000459	 0.048895	 1.276338	-0.060998	 3.020406	 0.533725	 7.100523	-6.791316	 177.893900	 2.158971	-13.055940	 0.582185	-0.070416	 70.199850	 0.018623	-2.385833	 28.452750	 0.000004	 0.362957	-6.281390	-178.185100	-0.770814	-11.548920	 0.877628	 5.127676	 69.295980	 1.191613	 2.384659	 28.388700	-0.000001	-14.868710	 6.837908	 1.429696	-3.157633	-3.311740	-0.000078	 9.671662	 7.112478	-0.859554	-91.017530	 68.772620	-177.488500	-6.990839	 5.707026	-27.664450	 21.411170	 0.120150	-3.253368	-14.943590	-37.378970	-8.807659	-2.027600	 6.559038	 9.033609	-5.188889	 0.308190	 3.541030	-5.234859	 0.342567	 0.430617	 4.691390	 20.444700	-7.534667	 4.962100	-15.673480	 2.253446	 88.806120	 67.279790	 176.958600	 7.432070	 10.583090	 6.526195	-21.822210	-8.395767	 33.533390	 12.607860	-36.780820	 10.326560	 1.803333	 3.979147	-15.098590	 4.898592	 3.004813	-9.310344	 5.224449	 0.395017	 2.014677
-0.001237	 0.057149	 1.275884	 0.020746	 4.118174	 0.662524	 7.116306	-9.032172	 177.855300	 2.142369	-14.211150	 0.638597	 0.533620	 70.095140	-0.664647	-2.385833	 28.452750	 0.000004	 0.011624	-8.337003	-178.387900	-0.753820	-12.391580	 0.944350	 4.596237	 68.993090	 1.785682	 2.384659	 28.388700	-0.000001	-20.431380	 7.454840	 1.494965	-3.100870	-3.244741	 0.185172	 9.459717	 8.279666	-1.098352	-90.872020	 67.757950	-177.206400	-4.822575	 8.535109	-31.682570	 17.700100	 0.546881	-5.152174	-19.538790	-44.183410	-14.334250	-2.027600	 6.559038	 9.033609	-5.188889	 0.308190	 3.541030	-5.234859	 0.342567	 0.430617	 4.739985	 23.546750	-8.429319	 5.370059	-18.300370	 2.465507	 88.525860	 65.318730	 176.497000	 5.117681	 13.472760	 9.192780	-19.316260	-6.398860	 35.606460	 15.875430	-42.871940	 14.118120	 1.803333	 3.979147	-15.098590	 4.898592	 3.004813	-9.310344	 5.224449	 0.395017	 2.014677
-0.002095	 0.066867	 1.275786	 0.116494	 5.480500	 0.785454	 7.122309	-11.608670	 177.881400	 2.180511	-15.277820	 0.684757	 1.268721	 69.863300	-1.528308	-2.385832	 28.452790	-0.000001	-0.466319	-10.698380	-178.616500	-1.012495	-13.043180	 0.934474	 4.065343	 68.521260	 2.629672	 2.384659	 28.388700	-0.000001	-25.271490	 8.057945	 1.511323	-2.899699	-2.168487	 0.548893	 9.010711	 8.850864	-1.354571	-90.829720	 66.466700	-177.290800	-2.909323	 10.319580	-35.697230	 13.314500	 1.149674	-6.933244	-26.188160	-49.017190	-21.609670	-2.027600	 6.559038	 9.033609	-5.188889	 0.308190	 3.541030	-5.234859	 0.342567	 0.430617	 4.511600	 25.569000	-8.782937	 5.528239	-20.167160	 2.486461	 88.402690	 63.252890	 176.501600	 2.407397	 15.109460	 11.686950	-16.534620	-4.244452	 38.570260	 19.943170	-47.246010	 19.219210	 1.803333	 3.979147	-15.098590	 4.898592	 3.004813	-9.310344	 5.224449	 0.395017	 2.014677
-0.002792	 0.077728	 1.275999	 0.265888	 7.079488	 0.873346	 7.024678	-14.360410	 177.986300	 2.143058	-16.018050	 0.706732	 2.157001	 69.303040	-2.526719	-2.385832	 28.452790	-0.000001	-0.964116	-13.228630	-178.831100	-1.332100	-13.331130	 0.880701	 3.500483	 67.772090	 3.604175	 2.384659	 28.388700	-0.000001	-29.257150	 8.571961	 1.471357	-2.612627	-0.587563	 0.937819	 8.389145	 8.985660	-1.529049	-91.014380	 65.343320	-177.942500	-1.176772	 11.866650	-39.318800	 9.076692	 1.868176	-8.536275	-33.366440	-51.475720	-29.152380	-2.027600	 6.559038	 9.033609	-5.188889	 0.308190	 3.541030	-5.234859	 0.342567	 0.430617	 4.118285	 26.673530	-8.813293	 5.458992	-21.398220	 2.416096	 88.542620	 61.614240	 177.049100	-0.531596	 16.557700	 14.180100	-14.009350	-1.943814	 41.123310	 24.062560	-49.736940	 24.529470	 1.803333	 3.979147	-15.098590	 4.898592	 3.004813	-9.310344	 5.224449	 0.395017	 2.014677
-0.003701	 0.091422	 1.275221	 0.562258	 9.349931	 0.919337	 6.726734	-18.342850	 178.172900	 2.060861	-17.617150	 0.750225	 3.439124	 68.836040	-3.942331	-2.385833	 28.452760	 0.000004	-1.590420	-17.081670	-179.095600	-1.532680	-14.757620	 0.921635	 2.840509	 67.472150	 4.595236	 2.384659	 28.388700	-0.000001	-33.095810	 9.099626	 1.339549	-2.232443	 1.076738	 1.267553	 7.481805	 8.895885	-1.524003	-91.716260	 64.775050	-179.842300	 0.306586	 13.709450	-41.917700	 5.009341	 2.850021	-10.274380	-40.357910	-51.744860	-36.503340	-2.027600	 6.559038	 9.033609	-5.188889	 0.308190	 3.541030	-5.234859	 0.342567	 0.430617	 3.583279	 26.872870	-8.750075	 5.125890	-22.171040	 2.316984	 89.196730	 60.790230	 178.645700	-4.231826	 18.912400	 16.647830	-11.499700	 0.792684	 43.650580	 28.105740	-50.739020	 29.883260	 1.803333	 3.979147	-15.098590	 4.898592	 3.004813	-9.310344	 5.224449	 0.395017	 2.014677
-0.004994	 0.102349	 1.274047	 0.721716	 11.549380	 0.909851	 6.522782	-22.018510	 178.344400	 2.091688	-19.439610	 0.835252	 4.605539	 69.025380	-5.341944	-2.385832	 28.452790	-0.000001	-1.948351	-20.798580	-179.273000	-1.696420	-16.820770	 0.999424	 2.229122	 68.023870	 5.505931	 2.384659	 28.388700	-0.000001	-35.511420	 9.566622	 1.271730	-1.831259	 2.948404	 1.473744	 6.600695	 8.322592	-1.228468	-92.484600	 65.066740	 178.111900	 0.830163	 15.019620	-43.147260	 2.914767	 3.770986	-11.626970	-43.226460	-50.681460	-39.801140	-2.027600	 6.559038	 9.033609	-5.188889	 0.308190	 3.541030	-5.234859	 0.342567	 0.430617	 3.176457	 25.489060	-8.992003	 4.591841	-21.920840	 2.070977	 89.957980	 60.348180	-179.599000	-7.200301	 20.883970	 18.676900	-9.260158	 3.401742	 46.317870	 30.897750	-50.267540	 33.011560	 1.803333	 3.979147	-15.098590	 4.898592	 3.004813	-9.310344	 5.224449	 0.395017	 2.014677
-0.007366	 0.114347	 1.273611	 1.496020	 14.832790	 1.026348	 5.509712	-26.705920	 178.230300	 2.593058	-20.828960	 1.071015	 5.278124	 68.721460	-6.710325	-2.385833	 28.452760	 0.000004	-3.014781	-25.157850	-179.828200	-1.444025	-18.139110	 1.154057	 0.611825	 67.893590	 7.134136	 2.384659	 28.388700	-0.000001	-37.280510	 9.574890	 1.058148	-1.679771	 4.752370	 1.357103	 5.511993	 7.101248	-1.051008	-93.186380	 65.241820	 176.210600	 1.402078	 15.319530	-44.081410	 0.973742	 4.721087	-12.820910	-43.596320	-48.354690	-40.432530	-2.027600	 6.559038	 9.033609	-5.188889	 0.308190	 3.541030	-5.234859	 0.342567	 0.430617	 2.836274	 24.703550	-8.717126	 3.926771	-22.088260	 1.798574	 90.742540	 60.436090	-177.804000	-10.135290	 22.629880	 21.062230	-7.420143	 5.956218	 49.078920	 31.939420	-48.264070	 34.187730	 1.803333	 3.979147	-15.098590	 4.898592	 3.004813	-9.310344	 5.224449	 0.395017	 2.014677
-0.011062	 0.130900	 1.272351	 2.780492	 18.978330	 1.024620	 3.755367	-32.551540	 177.906900	 3.340687	-21.820350	 1.398281	 5.167020	 66.757360	-7.574095	-2.385833	 28.452760	 0.000004	-4.633499	-30.798800	 179.279900	-1.439302	-19.517770	 1.240038	-1.045548	 66.804690	 9.196693	 2.384659	 28.388700	-0.000001	-38.357680	 9.442692	 0.736813	-1.613519	 6.143648	 0.916690	 4.105318	 5.773882	-0.980871	-93.889410	 65.610440	 174.220000	 1.938672	 15.261440	-45.228860	-1.060999	 5.849333	-14.045150	-42.054550	-44.592860	-38.893300	-2.027600	 6.559038	 9.033609	-5.188889	 0.308190	 3.541030	-5.234859	 0.342567	 0.430617	 2.476196	 24.106330	-7.847280	 2.934258	-22.559770	 1.240910	 91.611980	 60.964920	-175.742600	-12.882550	 24.169430	 24.521720	-5.720263	 8.675381	 50.850080	 31.237290	-44.478710	 33.253600	 1.803333	 3.979147	-15.098590	 4.898592	 3.004813	-9.310344	 5.224449	 0.395017	 2.014677
